/* XPM */
static char * toppler_xpm[] = {
"40 40 42 1",
" 	c None",
".	c #006000",
"+	c #004800",
"@	c #008800",
"#	c #007400",
"$	c #1A7A1A",
"%	c #4EAE4E",
"&	c #349434",
"*	c #68C868",
"=	c #8CD58C",
"-	c #D4EFD4",
";	c #B0E2B0",
">	c #F8FCF8",
",	c #006500",
"'	c #3E873E",
")	c #BAD5BA",
"!	c #006A00",
"~	c #007E00",
"{	c #008300",
"]	c #7CAE7C",
"^	c #CEAB73",
"/	c #C8A060",
"(	c #A87C00",
"_	c #C49B54",
":	c #00A000",
"<	c #00B800",
"[	c #EEECD9",
"}	c #000000",
"|	c #150F00",
"1	c #009400",
"2	c #00AC00",
"3	c #D9DCD9",
"4	c #007600",
"5	c #7E7500",
"6	c #00A200",
"7	c #2A6700",
"8	c #AF9854",
"9	c #008C00",
"0	c #008E00",
"a	c #D9E8D9",
"b	c #006B00",
"c	c #00AD00",
"  ....                ....              ",
"   ...+              +....+             ",
"    @#.              .$%%$.             ",
"    @@#.            .&****&.            ",
"    @@@@           .&*=--=*&.           ",
"    @@@@         +..*;>>>>;*.+          ",
"    @@,.     +.....'>>>>>>>>'.          ",
"    @@.    +.......)>>>>>>>>).+         ",
"   .@@   ...!~@{..]>^/((((/^>].         ",
"  ..@@  ..!~@@@@..>>/_((((_/>>.+        ",
"  ..@@..!~@@@@:<..(((([>}|((((..        ",
"  ..@@,#@@@@12<<..((((>3}}((((..        ",
"  ..@@@@@@12<<<<4.5(((}}}}(((5..        ",
"  ..@@@@@:<<<<<<6.7(((}}}}(((7..+       ",
"  ..@@@@:<<<<<<<<4.5((}}}}((5....       ",
"  ..@@@:<<<<<<<<<6.7((|}}|((7.....      ",
"  ..@@1<<<<<<<<<<<4./_((((_/..!~~!.     ",
"  ..@@2<<<<<<<<<<<6.8/((((/8.#@@@@#.    ",
"  ..@@<<<<<<<<<<<<<9..>>>>..#@12<:@#.   ",
"  ..@0<<<<<<<<<<<<<<9.a>>a.#@:<<<<:@.+  ",
"  +.<<<<<<<<<<<<<<<<<9....#@:<<<b9<<.+  ",
"   .9<<<<<<<<<<<<<<<<<64..@:<<<<..9c.   ",
"   +.6<<<<<<<<<<<<<<<<<<<<<<<<<<@{..    ",
"    .4<<<<<<<<<<<<<<<<<<<<<<<<<<@{.     ",
"    +.<<<<<<<<0@.9<<<<<<b9<<<<<<..      ",
"     .c<<<<<<<:@#.9<<<<<9.46<<<c.       ",
"      ....@:<<<1@!.6<<<<<64.....        ",
"       ...#@:<<2@~.4<<<<<9....+         ",
"        ...~@:<<@@..<<64..+             ",
"         ..!@0<<@@..c9..+               ",
"         +..<<<<@@....+                 ",
"          ..<<<<@{...                   ",
"          ..<<<<..                      ",
"         +..<<<<..                      ",
"         .{@<<0@...                     ",
"        +.@0<<:@,...                    ",
"        +.<<<<<:@@<c.                   ",
"         .c<<<<<@@<c.                   ",
"          ..........                    ",
"           +......+                     "};

